PathFileType	4	(X/Y/Z)	C:\Users\Balu\Nextcloud\Documents\MA\Daten\C3D\P03\2016 - pre\Static01\marker_experimental.trc
DataRate	CameraRate	NumFrames	NumMarkers	Units	OrigDataRate	OrigDataStartFrame	OrigNumFrames
150.000000	150.000000	4	104	mm	150.000000	18	150
Frame#	Time	LFHD			LBHD			RFHD			RBHD			C7			T10			CLAV			STRN			RBAK			LSHO			LUPA			LELB			LFRA			LWRB			LWRA			LFIN			RSHO			RUPA			RELB			RFRA			RWRB			RWRA			RFIN			SACR			LASI			RASI			LT1			LT2			LT3			LS1			LS2			LS3			LHEE			LTOE			RT1			RT2			RT3			RS1			RS2			RS3			RHEE			RTOE			LKNE			LKNM			LANK			LANM			RKNM			RKNE			RANM			RANK			SACO			SACA			SACL			SACP			LKJC			RKJC			LAJC			RAJC			LMMA			RMMA			LTHI			RTHI			LTIB			RTIB			funktRKJC			funktLKJC			funktRHIP			funktLHIP			LHJC			RHJC			LPelvisAngles			RPelvisAngles			LFootProgressAngles			RFootProgressAngles			LHipAngles			RHipAngles			LKneeAngles			RKneeAngles			LAnkleAngles			RAnkleAngles			LFFootAngles			RFFootAngles			LAbsAnkleAngle			RAbsAnkleAngle			RNeckAngles			LNeckAngles			RSpineAngles			LSpineAngles			LShoulderAngles			LElbowAngles			LWristAngles			RShoulderAngles			RElbowAngles			RWristAngles			RThoraxAngles			LThoraxAngles			RHeadAngles			LHeadAngles			LNormalisedGRF			RNormalisedGRF			LGroundReactionForce			RGroundReactionForce			LGRF			RGRF			
		X1	Y1	Z1	X2	Y2	Z2	X3	Y3	Z3	X4	Y4	Z4	X5	Y5	Z5	X6	Y6	Z6	X7	Y7	Z7	X8	Y8	Z8	X9	Y9	Z9	X10	Y10	Z10	X11	Y11	Z11	X12	Y12	Z12	X13	Y13	Z13	X14	Y14	Z14	X15	Y15	Z15	X16	Y16	Z16	X17	Y17	Z17	X18	Y18	Z18	X19	Y19	Z19	X20	Y20	Z20	X21	Y21	Z21	X22	Y22	Z22	X23	Y23	Z23	X24	Y24	Z24	X25	Y25	Z25	X26	Y26	Z26	X27	Y27	Z27	X28	Y28	Z28	X29	Y29	Z29	X30	Y30	Z30	X31	Y31	Z31	X32	Y32	Z32	X33	Y33	Z33	X34	Y34	Z34	X35	Y35	Z35	X36	Y36	Z36	X37	Y37	Z37	X38	Y38	Z38	X39	Y39	Z39	X40	Y40	Z40	X41	Y41	Z41	X42	Y42	Z42	X43	Y43	Z43	X44	Y44	Z44	X45	Y45	Z45	X46	Y46	Z46	X47	Y47	Z47	X48	Y48	Z48	X49	Y49	Z49	X50	Y50	Z50	X51	Y51	Z51	X52	Y52	Z52	X53	Y53	Z53	X54	Y54	Z54	X55	Y55	Z55	X56	Y56	Z56	X57	Y57	Z57	X58	Y58	Z58	X59	Y59	Z59	X60	Y60	Z60	X61	Y61	Z61	X62	Y62	Z62	X63	Y63	Z63	X64	Y64	Z64	X65	Y65	Z65	X66	Y66	Z66	X67	Y67	Z67	X68	Y68	Z68	X69	Y69	Z69	X70	Y70	Z70	X71	Y71	Z71	X72	Y72	Z72	X73	Y73	Z73	X74	Y74	Z74	X75	Y75	Z75	X76	Y76	Z76	X77	Y77	Z77	X78	Y78	Z78	X79	Y79	Z79	X80	Y80	Z80	X81	Y81	Z81	X82	Y82	Z82	X83	Y83	Z83	X84	Y84	Z84	X85	Y85	Z85	X86	Y86	Z86	X87	Y87	Z87	X88	Y88	Z88	X89	Y89	Z89	X90	Y90	Z90	X91	Y91	Z91	X92	Y92	Z92	X93	Y93	Z93	X94	Y94	Z94	X95	Y95	Z95	X96	Y96	Z96	X97	Y97	Z97	X98	Y98	Z98	X99	Y99	Z99	X100	Y100	Z100	X101	Y101	Z101	X102	Y102	Z102	X103	Y103	Z103	X104	Y104	Z104	

19	0.12	-1132.102172851562	1440.438110351562	-382.2379150390624	-993.0633544921875	1421.16357421875	-361.7429199218749	-1138.91015625	1441.395874023438	-498.1869506835936	-986.6556396484375	1421.583251953125	-510.587921142578	-962.8023071289062	1274.260375976562	-442.1055603027343	-914.6312255859375	1094.64013671875	-444.1185302734374	-1094.5576171875	1213.448486328125	-426.2466735839843	-1127.341674804688	1160.857543945312	-421.7119750976562	-933.2257080078125	1177.316284179688	-541.3856811523436	-1035.98388671875	1263.184814453125	-310.3735351562499	-976.3211059570312	1045.38427734375	-217.3722381591796	-966.85302734375	971.7265014648438	-189.282730102539	-982.2665405273438	889.251953125	-145.4516601562499	-1027.322875976562	769.4965209960938	-89.49897766113277	-1085.2138671875	776.1508178710938	-123.6098022460937	-1114.6533203125	718.4688720703125	-77.23194122314449	-1061.086791992188	1252.193359375	-558.6156616210936	-1053.281494140625	1078.302978515625	-648.3021850585936	-1031.689453125	959.8114013671875	-702.3288574218749	-1092.757690429688	831.42724609375	-755.3280639648438	-1105.013549804688	751.432373046875	-775.3931884765625	-1147.821166992188	747.7693481445312	-723.4248046875	-1189.341552734375	701.1207885742188	-769.1510620117188	-917.5783081054688	875.2828369140625	-429.2572021484374	-1073.296142578125	871.1314697265625	-277.2241821289062	-1126.093017578125	879.2444458007812	-519.9727783203125	-1128.424682617188	586.1421508789062	-242.1961059570312	-1079.038330078125	474.4732360839844	-230.6943664550781	-1203.418579101562	531.5541381835938	-275.0169372558593	-1033.088134765625	217.1018981933594	-282.2121276855469	-950.4564208984375	148.5074005126953	-342.0552978515625	-1062.053833007812	131.6237030029297	-254.0053558349609	-973.7952880859375	41.79354095458987	-367.8074035644531	-1083.177490234375	41.30736160278322	-262.0969848632812	-1133.491943359375	608.343017578125	-591.7369384765625	-1056.459716796875	510.6099548339844	-585.7007446289062	-1198.34619140625	534.859375	-582.2993774414062	-1088.923828125	266.9882507324219	-587.0546875	-981.3518676757812	217.3508911132813	-561.7251586914062	-1116.61767578125	176.7737731933594	-582.4130859375	-981.9758911132812	44.98702239990237	-500.1100158691406	-1123.357299804688	41.80073165893558	-570.6694946289062	-1147.663208007812	432.5980224609375	-267.1659545898438	-1164.557373046875	421.6122436523438	-366.3958435058594	-994.1653442382812	49.57006835937502	-304.6199035644531	-1044.949951171875	47.21592330932619	-356.6651916503906	-1165.1337890625	424.4045104980469	-465.9085693359375	-1164.913452148438	440.2339172363282	-568.4395141601562	-1062.910278320312	52.92071533203128	-490.8087463378906	-1019.098937988281	47.64768600463871	-552.2496337890625	-986.323486328125	875.4271240234375	-423.2483520507812	-991.9920654296875	875.4151611328125	-422.0158386230468	-985.0912475585938	875.23779296875	-417.5828857421874	-986.0380249023438	933.40625	-421.3728637695312	-1156.110229492188	427.1051330566406	-316.7808837890625	-1165.023559570312	432.3192138671876	-517.174072265625	-1019.5576171875	48.39299774169924	-330.6425476074219	-1041.004638671875	50.28419876098636	-521.5291748046875	-1044.949951171875	47.21592330932619	-356.6651916503906	-1062.910278320312	52.92071533203128	-490.8087463378906	-1084.331420898438	611.4436645507812	-224.3596801757812	-1117.915161132812	624.8209838867188	-601.96240234375	-1008.950378417969	243.916000366211	-241.8671722412109	-1039.410278320312	244.0151977539063	-613.3388061523438	0	0	0	0	0	0	0	0	0	0	0	0	-1046.441772460938	783.2371215820312	-353.6885375976562	-1070.550170898438	786.2027587890625	-467.1376342773437	-0.2821831405162811	-12.27314186096191	1.85285723209381	-0.2821831405162811	12.27314186096191	-1.85285723209381	0.2266550809144974	-43.99695205688477	-13.04337501525879	1.329851031303406	-26.50804328918457	-9.109311103820803	18.0437068939209	4.963968276977539	3.732159137725831	13.04236888885498	-10.35193347930908	8.929924011230469	37.63034820556641	-33.49665069580078	-2.024457931518557	32.92414093017578	-30.74244499206543	-7.068814754486086	15.38725852966309	-2.494762659072876	-1.264045715332031	14.63892555236816	5.356159687042236	0.4620109200477603	6.957463513089003e-16	3.18055471858951e-15	7.087915798449466e-15	1.789061910092591e-15	-9.129038034951065e-31	1.490885052132102e-14	15.18159484863281	0	0	14.54683971405029	0	0	-11.44659996032715	8.011648178100586	0.5862803459167485	-11.44659996032715	-8.011648178100586	-0.5862803459167485	3.773983478546143	5.916186809539795	-2.911213397979736	3.773983478546143	-5.916186809539795	2.911213397979736	-9.500152587890625	-11.71522235870361	-18.98739624023438	38.5146369934082	-3.434999138428318e-13	-3.180554718589531e-15	16.08998489379883	128.5381622314453	12.62687397003175	-8.847466468811035	0.6501455903053298	-24.42337608337402	36.22772598266602	2.649401965176823e-12	-3.975693398235266e-16	19.08550453186035	132.3232421875	0.2137009203434072	3.791051626205444	6.40906810760498	0.6208254098892216	3.791051626205444	-6.40906810760498	-0.6208254098892216	7.634756565093994	-1.577528119087219	-0.2838976979255677	7.634756565093994	1.577528119087219	0.2838976979255677	0	0	0	0	0	0	0	0	0	0	0	0	0	0	0	0	0	0	
20	0.1266666666666667	-1132.038452148438	1440.491577148438	-382.2644958496093	-993.0048828125	1421.144409179688	-361.7950134277343	-1138.86181640625	1441.462280273438	-498.2084960937499	-986.6326293945312	1421.574462890625	-510.6387939453124	-962.8002319335938	1274.295288085938	-442.1572570800781	-914.6099853515625	1094.6748046875	-444.1688842773437	-1094.533325195312	1213.455078125	-426.3110046386718	-1127.318481445312	1160.844970703125	-421.7773132324218	-933.217041015625	1177.354736328125	-541.4471435546874	-1035.988647460938	1263.187866210938	-310.4285888671874	-976.2725830078125	1045.38330078125	-217.4535675048828	-966.7911987304688	971.7194213867188	-189.4029693603515	-982.1718139648438	889.2357788085938	-145.5595092773437	-1027.158813476562	769.4774780273438	-89.58981323242183	-1085.042846679688	776.1162109375	-123.6542282104492	-1114.484741210938	718.4320068359375	-77.27848052978511	-1061.084594726562	1252.216430664062	-558.6687011718749	-1053.253051757812	1078.344360351562	-648.3841552734374	-1031.693603515625	959.8486938476562	-702.4252319335936	-1092.828491210938	831.4998779296875	-755.4651489257812	-1105.0224609375	751.5079956054688	-775.5239868164062	-1147.858642578125	747.8369750976562	-723.5736083984375	-1189.391723632812	701.224853515625	-769.3230590820312	-917.4866943359375	875.3148803710938	-429.3012695312499	-1073.241577148438	871.132568359375	-277.2950439453124	-1126.023193359375	879.255615234375	-520.0380859375	-1128.396728515625	586.1582641601562	-242.2498321533203	-1078.98046875	474.5041198730469	-230.7705688476562	-1203.37060546875	531.5670776367188	-275.0842590332031	-1033.072387695312	217.1111755371094	-282.2159118652344	-950.4322509765625	148.5031127929688	-342.0450744628906	-1062.046020507812	131.6383972167969	-254.0071411132812	-973.7696533203125	41.79571533203127	-367.7898864746094	-1083.175537109375	41.31393051147462	-262.0889892578125	-1133.447509765625	608.3577270507812	-591.7744140625	-1056.401733398438	510.6296997070313	-585.755126953125	-1198.287963867188	534.8699340820312	-582.297119140625	-1088.8837890625	266.9877929687501	-587.0712890625	-981.3207397460938	217.335189819336	-561.75439453125	-1116.60302734375	176.7830047607422	-582.4127807617188	-981.9664306640625	44.98027038574222	-500.1192626953125	-1123.3564453125	41.79664993286136	-570.6676025390625	-1147.6416015625	432.625732421875	-267.2214050292969	-1164.509765625	421.6260681152344	-366.459228515625	-994.1561889648438	49.56761550903322	-304.6136779785156	-1044.934448242188	47.22009658813479	-356.6615600585938	-1165.030883789062	424.4323425292969	-465.9166870117188	-1164.853271484375	440.2538146972657	-568.4466552734375	-1062.889770507812	52.92342376708987	-490.8106994628906	-1019.09716796875	47.6457443237305	-552.2587280273438	-986.2598266601562	875.4501342773438	-423.3096008300781	-991.928466796875	875.4373779296875	-422.0774841308593	-985.0279541015625	875.2605590820312	-417.6440734863281	-985.98193359375	933.4291381835938	-421.4299621582031	-1156.07568359375	427.1259155273438	-316.84033203125	-1164.942016601562	432.3430786132813	-517.1817016601562	-1019.545288085938	48.39385604858401	-330.6376342773438	-1040.993408203125	50.28458404541018	-521.5347290039062	-1044.934448242188	47.22009658813479	-356.6615600585938	-1062.889770507812	52.92342376708987	-490.8106994628906	-1084.309448242188	611.4713134765625	-224.4204864501953	-1117.880859375	624.8321533203125	-601.9981689453125	-1008.935241699219	243.9315032958985	-241.8832550048828	-1039.38427734375	244.0084228515625	-613.3599243164062	0	0	0	0	0	0	0	0	0	0	0	0	-1046.369995117188	783.2471313476562	-353.7600402832031	-1070.472045898438	786.2176513671875	-467.2103271484374	-0.2744364738464355	-12.26972103118896	1.856975555419921	-0.2744364738464355	12.26972103118896	-1.856975555419921	0.2214211970567703	-43.99338531494141	-13.04988479614258	1.331783413887024	-26.50159072875977	-9.10070323944092	18.05818176269531	4.979302883148193	3.735926151275635	13.05320835113525	-10.32731246948242	8.91729736328125	37.630615234375	-33.50521087646484	-2.027356386184695	32.91079711914062	-30.75409126281738	-7.073151588439943	15.38241767883301	-2.497589826583862	-1.264403820037842	14.62872982025146	5.351362705230713	0.4604210853576663	1.341796538448562e-15	-4.770832183763385e-15	6.460501553759261e-15	1.789061910092591e-15	-1.590277359294755e-15	3.950845422031387e-15	15.17590045928955	0	0	14.5393762588501	0	0	-11.48001766204834	7.997653961181641	0.5908923745155339	-11.48001766204834	-7.997653961181641	-0.5908923745155339	3.770134687423706	5.916926383972168	-2.914653539657592	3.770134687423706	-5.916926383972168	2.914653539657592	-9.507777214050293	-11.76293468475342	-18.97391319274902	38.49933624267578	3.244165732493171e-13	1.590277359294775e-15	16.10649871826172	128.5534362792969	12.64315605163575	-8.839265823364258	0.6418206691741958	-24.4323558807373	36.2288703918457	4.4686793870298e-13	3.180554718589538e-15	19.10178565979004	132.3200988769531	0.1970701515674672	3.795173645019531	6.4048171043396	0.620853185653687	3.795173645019531	-6.4048171043396	-0.620853185653687	7.664070606231689	-1.566902041435242	-0.2873728871345521	7.664070606231689	1.566902041435242	0.2873728871345521	0	0	0	0	0	0	0	0	0	0	0	0	0	0	0	0	0	0	
21	0.1333333333333333	-1131.977172851562	1440.549072265625	-382.2941284179686	-992.9503784179688	1421.1240234375	-361.8504028320311	-1138.819213867188	1441.52783203125	-498.2325439453124	-986.6140747070312	1421.561279296875	-510.6918640136718	-962.8028564453125	1274.32958984375	-442.2081909179687	-914.5863037109375	1094.713134765625	-444.2226867675781	-1094.5166015625	1213.45458984375	-426.3730773925781	-1127.292358398438	1160.818603515625	-421.8424072265624	-933.2117309570312	1177.398193359375	-541.5103149414061	-1035.999755859375	1263.188842773438	-310.4822082519531	-976.2216796875	1045.383666992188	-217.5315704345703	-966.7265625	971.7203369140625	-189.5141906738281	-982.0735473632812	889.2279052734375	-145.6605682373046	-1026.99609375	769.4559326171875	-89.67955017089839	-1084.876342773438	776.0804443359375	-123.700698852539	-1114.324340820312	718.3969116210938	-77.32429504394527	-1061.09033203125	1252.233520507812	-558.7156372070311	-1053.229125976562	1078.381103515625	-648.4669189453124	-1031.700317382812	959.8795776367188	-702.5209960937499	-1092.873657226562	831.5662841796875	-755.5961303710938	-1105.038452148438	751.5770874023438	-775.659912109375	-1147.88525390625	747.8955078125	-723.7218627929688	-1189.439453125	701.3224487304688	-769.4999389648438	-917.395751953125	875.34130859375	-429.3493652343749	-1073.184204101562	871.1309814453125	-277.3655395507812	-1125.954467773438	879.2708129882812	-520.103759765625	-1128.378173828125	586.1737060546875	-242.3128509521484	-1078.924926757812	474.5260009765625	-230.8614959716797	-1203.33154296875	531.5800170898438	-275.1744079589843	-1033.063110351562	217.117660522461	-282.2207336425781	-950.41015625	148.4976043701172	-342.0306091308594	-1062.048950195312	131.6512756347657	-254.0145111083984	-973.7516479492188	41.79580307006838	-367.7778625488281	-1083.177368164062	41.31734466552736	-262.0885009765625	-1133.402954101562	608.3718872070312	-591.8053588867188	-1056.330932617188	510.6528625488282	-585.7938842773438	-1198.230590820312	534.8812255859375	-582.2880249023438	-1088.846923828125	266.9879455566407	-587.083740234375	-981.2907104492188	217.3200988769532	-561.78173828125	-1116.591796875	176.7933197021485	-582.406982421875	-981.9558715820312	44.97313308715823	-500.1289672851562	-1123.35595703125	41.79401397705082	-570.6630859375	-1147.650268554688	432.6566162109375	-267.2723083496094	-1164.451904296875	421.6353454589844	-366.5338439941406	-994.1497192382812	49.56570434570315	-304.6096801757812	-1044.917358398438	47.22364807128908	-356.661376953125	-1164.920288085938	424.4687500000001	-465.9116821289062	-1164.796020507812	440.2770690917969	-568.4451904296875	-1062.868896484375	52.92325210571292	-490.8091430664062	-1019.095886230469	47.64315032958988	-552.2675170898438	-986.1957397460938	875.4698486328125	-423.3725891113281	-991.8644409179688	875.4564208984375	-422.1406555175781	-984.9640502929688	875.2799072265625	-417.7070312499999	-985.923583984375	933.44873046875	-421.4879150390624	-1156.051025390625	427.14599609375	-316.903076171875	-1164.858154296875	432.3728942871094	-517.1784057617188	-1019.533508300781	48.39467620849612	-330.6355285644531	-1040.982421875	50.28319931030276	-521.538330078125	-1044.917358398438	47.22364807128908	-356.661376953125	-1062.868896484375	52.92325210571292	-490.8091430664062	-1084.338256835938	611.5114135742188	-224.4779968261718	-1117.857055664062	624.84521484375	-602.0272827148438	-1008.928894042969	243.947006225586	-241.8979187011718	-1039.358520507812	244.0044555664063	-613.3778076171875	0	0	0	0	0	0	0	0	0	0	0	0	-1046.300170898438	783.2549438476562	-353.8341064453124	-1070.3974609375	786.2333984375	-467.2851867675781	-0.2688957452774048	-12.2672119140625	1.862187027931213	-0.2688957452774048	12.2672119140625	-1.862187027931213	0.218892902135849	-43.98641586303711	-13.05449199676514	1.331651449203491	-26.49465751647949	-9.093849182128908	18.07201385498047	5.020205497741699	3.740504503250123	13.06166458129883	-10.29907417297363	8.901389122009277	37.6326904296875	-33.53016662597656	-2.044522047042849	32.89546585083008	-30.76982498168945	-7.077280044555666	15.37725734710693	-2.499741554260254	-1.264548659324646	14.61922264099121	5.345458030700684	0.458566248416901	3.031466120202676e-15	1.590277359294755e-15	9.423635408524565e-15	9.939233892638914e-16	1.590277359294755e-15	-8.199867617319968e-16	15.17114925384521	0	0	14.53176879882812	0	0	-11.51938724517822	7.983999252319336	0.5919923782348637	-11.51938724517822	-7.983999252319336	-0.5919923782348637	3.772759199142456	5.917887210845947	-2.918415546417236	3.772759199142456	-5.917887210845947	2.918415546417236	-9.513248443603516	-11.80181884765625	-18.96370887756348	38.4866943359375	3.498610093039672e-13	-7.951386796473562e-16	16.12820053100586	128.5614776611328	12.65265655517579	-8.827912330627441	0.6316932439804092	-24.44096374511719	36.2292594909668	-1.079003206228002e-12	3.180554718589444e-15	19.11767768859863	132.3292846679688	0.1776307672262273	3.803587198257446	6.401266574859619	0.6193391084671025	3.803587198257446	-6.401266574859619	-0.6193391084671025	7.69514274597168	-1.556281447410583	-0.288996309041977	7.69514274597168	1.556281447410583	0.288996309041977	0	0	0	0	0	0	0	0	0	0	0	0	0	0	0	0	0	0	
22	0.14	-1131.91943359375	1440.609252929688	-382.3261108398436	-992.9000244140625	1421.103149414062	-361.9082031249999	-1138.78466796875	1441.591186523438	-498.258819580078	-986.5989379882812	1421.544189453125	-510.7471923828124	-962.8109741210938	1274.36083984375	-442.2597656249999	-914.5623779296875	1094.753540039062	-444.2789916992187	-1094.508422851562	1213.448974609375	-426.4317016601562	-1127.265869140625	1160.781860351562	-421.9059143066406	-933.20947265625	1177.444580078125	-541.5731201171874	-1036.017456054688	1263.18798828125	-310.5348510742187	-976.1708984375	1045.385986328125	-217.6038513183593	-966.6618041992188	971.7235717773438	-189.6118011474609	-981.9686279296875	889.2280883789062	-145.7508392333984	-1026.840454101562	769.430419921875	-89.76744079589839	-1084.723266601562	776.042236328125	-123.7598800659179	-1114.169189453125	718.3616333007812	-77.37223052978511	-1061.105102539062	1252.24462890625	-558.7574462890624	-1053.210693359375	1078.412963867188	-648.5488281249999	-1031.708251953125	959.9047241210938	-702.6156616210936	-1092.884155273438	831.6234741210938	-755.718017578125	-1105.070678710938	751.6362915039062	-775.805908203125	-1147.905395507812	747.9459228515625	-723.8714599609375	-1189.481567382812	701.4052124023438	-769.6751708984375	-917.3123168945312	875.36181640625	-429.4036865234374	-1073.126953125	871.1251831054688	-277.4334106445312	-1125.887451171875	879.2887573242188	-520.1688232421875	-1128.365478515625	586.1871948242188	-242.3838806152343	-1078.879516601562	474.5366516113281	-230.9551544189453	-1203.301635742188	531.5932006835938	-275.2838745117187	-1033.058959960938	217.1216278076172	-282.2276916503906	-950.391845703125	148.4905700683594	-342.0140075683594	-1062.061157226562	131.6621246337891	-254.0271148681641	-973.7422485351562	41.79267501831057	-367.7716064453125	-1083.182739257812	41.31758117675783	-262.0950012207031	-1133.35791015625	608.3841552734375	-591.8309326171875	-1056.250244140625	510.6763000488282	-585.8191528320312	-1198.174560546875	534.8912963867188	-582.2747802734375	-1088.81103515625	266.9879760742188	-587.0927734375	-981.2611083984375	217.3052520751953	-561.8069458007812	-1116.583862304688	176.8031616210938	-582.3966064453125	-981.9442749023438	44.96594619750979	-500.1387939453125	-1123.35498046875	41.79217910766605	-570.6555786132812	-1147.649780273438	432.6725463867188	-267.3282470703125	-1164.38427734375	421.6395568847656	-366.6140747070312	-994.14404296875	49.56341934204104	-304.6087341308594	-1044.89892578125	47.22612762451174	-356.6640930175781	-1164.802612304688	424.5095214843751	-465.8953552246094	-1164.740966796875	440.3004150390626	-568.4359741210938	-1062.849487304688	52.92057800292972	-490.8039855957031	-1019.094421386719	47.639518737793	-552.275146484375	-986.1326904296875	875.48583984375	-423.4346313476562	-991.8013916015625	875.471923828125	-422.2029113769531	-984.9011840820312	875.2952880859375	-417.7690429687499	-985.8641357421875	933.4644775390625	-421.5430297851562	-1156.01708984375	427.1560668945312	-316.9711608886719	-1164.771850585938	432.4049682617188	-517.1656494140625	-1019.521484375	48.39477157592776	-330.6364135742188	-1040.972045898438	50.28004837036136	-521.53955078125	-1044.89892578125	47.22612762451174	-356.6640930175781	-1062.849487304688	52.92057800292972	-490.8039855957031	-1084.36181640625	611.5430908203125	-224.5382232666015	-1117.842895507812	624.8583984375	-602.0502319335938	-1008.921264648438	243.9558563232422	-241.9180603027343	-1039.330932617188	244.001953125	-613.39013671875	0	0	0	0	0	0	0	0	0	0	0	0	-1046.234130859375	783.25927734375	-353.9087829589843	-1070.3271484375	786.2489624023438	-467.3604736328124	-0.2652795910835266	-12.26501846313477	1.868603348731994	-0.2652795910835266	12.26501846313477	-1.868603348731994	0.2183491587638855	-43.97615432739258	-13.05632400512696	1.329948663711548	-26.48773002624512	-9.088424682617189	18.08193016052246	5.060216903686523	3.746249437332154	13.06782245635986	-10.26726913452148	8.882388114929199	37.63166809082031	-33.55347061157227	-2.060271024703982	32.87810516357422	-30.79060554504395	-7.081481933593752	15.37063407897949	-2.499058961868286	-1.263790011405945	14.6101131439209	5.339708805084229	0.4567671418190006	7.702905975627583e-16	3.529894665355098e-31	-5.764755467148157e-15	1.987846699118444e-16	-1.590277359294755e-15	-2.981770061912556e-15	15.1657075881958	0	0	14.52386951446533	0	0	-11.56315803527832	7.971169471740723	0.5902073979377751	-11.56315803527832	-7.971169471740723	-0.5902073979377751	3.780775308609009	5.917950630187988	-2.923155784606933	3.780775308609009	-5.917950630187988	2.923155784606933	-9.516724586486816	-11.82706260681152	-18.95702362060547	38.47775268554688	-5.899928982866509e-13	-7.951386796474137e-16	16.14799118041992	128.5666351318359	12.64985656738282	-8.814566612243652	0.6171033978462234	-24.44936561584473	36.22996139526367	1.828818943071936e-13	1.590277359294766e-15	19.12687301635742	132.3494873046875	0.1662147641182027	3.815594673156738	6.398964405059814	0.6169061064720158	3.815594673156738	-6.398964405059814	-0.6169061064720158	7.72710657119751	-1.54561710357666	-0.2887143492698671	7.72710657119751	1.54561710357666	0.2887143492698671	0	0	0	0	0	0	0	0	0	0	0	0	0	0	0	0	0	0	
